<svg width="59" height="59" viewBox="0 0 59 59" fill="none" xmlns="http://www.w3.org/2000/svg">
<rect width="58.871" height="58.871" rx="10" fill="#1B2133"/>
<g clip-path="url(#clip0_1_24046)">
<path d="M36.6331 34.6094L39.686 34.6094C40.1075 34.6094 40.4492 34.2677 40.4492 33.8461L40.4492 21.6347C40.4492 21.2132 40.1075 20.8714 39.686 20.8714L36.6331 20.8714C36.2116 20.8714 35.8699 21.2132 35.8699 21.6347L35.8699 33.8462C35.8699 34.2677 36.2115 34.6094 36.6331 34.6094Z" fill="white"/>
<path d="M17.5662 32.5849C17.7008 33.7689 18.8068 34.608 19.9984 34.608L25.9486 34.608C25.443 35.5135 25.1715 38.0746 25.1836 39.1207C25.2035 40.8525 26.6376 42.2402 28.3694 42.2402L28.9992 42.2402C29.4211 42.2402 29.7625 41.8989 29.7625 41.477C29.7625 39.7121 30.4497 36.5265 31.7458 35.2304C32.6181 34.358 33.3639 34.0419 34.3418 33.5532L34.3418 22.1011C32.8446 21.6021 30.9437 20.8701 28.0463 20.8701L23.0537 20.8701C21.4086 20.8701 20.1274 22.3936 20.7648 24.0034C19.7937 24.268 19.0774 25.1587 19.0774 26.2126C19.0774 26.51 19.1348 26.7947 19.2384 27.0563C17.6018 27.5022 16.9994 29.5231 18.1353 30.7919C17.718 31.2581 17.4878 31.8959 17.5662 32.5849Z" fill="white"/>
</g>
<defs>
<clipPath id="clip0_1_24046">
<rect width="26" height="26" fill="white" transform="translate(42 46.8711) rotate(-180)"/>
</clipPath>
</defs>
</svg>
