<svg width="25" height="25" viewBox="0 0 25 25" fill="none" xmlns="http://www.w3.org/2000/svg">
<g clip-path="url(#clip0_1_18440)">
<path d="M22.1816 3.44574C20.9365 2.09532 19.2281 1.35156 17.3706 1.35156C15.9822 1.35156 14.7107 1.79051 13.5913 2.65611C13.0265 3.09304 12.5147 3.6276 12.0634 4.25152C11.6124 3.62778 11.1004 3.09304 10.5354 2.65611C9.41614 1.79051 8.14462 1.35156 6.75621 1.35156C4.89876 1.35156 3.19012 2.09532 1.94503 3.44574C0.7148 4.78039 0.0371094 6.60371 0.0371094 8.58008C0.0371094 10.6143 0.795176 12.4763 2.4227 14.4402C3.87864 16.1969 5.97117 17.9802 8.39438 20.0452C9.22181 20.7504 10.1597 21.5498 11.1336 22.4013C11.3909 22.6266 11.721 22.7507 12.0634 22.7507C12.4057 22.7507 12.736 22.6266 12.9929 22.4016C13.9667 21.55 14.9052 20.7502 15.733 20.0447C18.1558 17.98 20.2484 16.1969 21.7043 14.44C23.3318 12.4763 24.0897 10.6143 24.0897 8.57989C24.0897 6.60371 23.412 4.78039 22.1816 3.44574Z" fill="#D53030"/>
</g>
<defs>
<clipPath id="clip0_1_18440">
<rect width="24.0526" height="24.0526" fill="white" transform="translate(0.0371094 0.0371094)"/>
</clipPath>
</defs>
</svg>
