<svg width="59" height="59" viewBox="0 0 59 59" fill="none" xmlns="http://www.w3.org/2000/svg">
<rect x="58.8711" y="58.8711" width="58.871" height="58.871" rx="10" transform="rotate(180 58.8711 58.8711)" fill="#1B2133"/>
<g clip-path="url(#clip0_1_24055)">
<path d="M22.238 24.2617H19.1851C18.7636 24.2617 18.4219 24.6034 18.4219 25.025V37.2364C18.4219 37.6579 18.7636 37.9996 19.1851 37.9996H22.238C22.6595 37.9996 23.0012 37.6579 23.0012 37.2364V25.0249C23.0012 24.6034 22.6596 24.2617 22.238 24.2617Z" fill="white"/>
<path d="M41.3049 26.2862C41.1703 25.1022 40.0643 24.2631 38.8727 24.2631H32.9225C33.4281 23.3576 33.6996 20.7965 33.6875 19.7503C33.6676 18.0186 32.2335 16.6309 30.5017 16.6309H29.8719C29.45 16.6309 29.1086 16.9722 29.1086 17.3941C29.1086 19.159 28.4214 22.3446 27.1253 23.6407C26.253 24.5131 25.5072 24.8292 24.5293 25.3179V36.77C26.0265 37.269 27.9274 38.001 30.8248 38.001H35.8174C37.4625 38.001 38.7437 36.4775 38.1062 34.8677C39.0774 34.6031 39.7937 33.7124 39.7937 32.6585C39.7937 32.3611 39.7363 32.0764 39.6327 31.8148C41.2693 31.3689 41.8717 29.348 40.7358 28.0792C41.1531 27.6129 41.3833 26.9752 41.3049 26.2862Z" fill="white"/>
</g>
<defs>
<clipPath id="clip0_1_24055">
<rect width="26" height="26" fill="white" transform="translate(16.8711 12)"/>
</clipPath>
</defs>
</svg>
