<svg width="20" height="20" viewBox="0 0 20 20" fill="none" xmlns="http://www.w3.org/2000/svg">
<g clip-path="url(#clip0_1_21124)">
<path d="M17.338 7.69217L5.52548 0.410714C4.67087 -0.115419 3.63762 -0.137294 2.76149 0.352199C1.88535 0.841614 1.3623 1.73306 1.3623 2.73662V17.2332C1.3623 18.7506 2.58496 19.9918 4.0877 20C4.0918 20 4.0959 20 4.09993 20C4.56954 20 5.05891 19.8528 5.51598 19.5739C5.88368 19.3495 5.99989 18.8696 5.77556 18.502C5.55122 18.1342 5.07122 18.0181 4.70364 18.2424C4.48985 18.3728 4.28106 18.4402 4.0961 18.4402C3.52911 18.4371 2.92203 17.9514 2.92203 17.2332V2.73666C2.92203 2.30615 3.14641 1.92384 3.52219 1.71388C3.89801 1.50392 4.34118 1.51329 4.70731 1.73872L16.5199 9.02018C16.8749 9.23878 17.0781 9.60327 17.0772 10.0202C17.0764 10.4371 16.8717 10.8008 16.5147 11.0187L7.97419 16.2479C7.60685 16.4728 7.49138 16.9529 7.7163 17.3202C7.94118 17.6876 8.4213 17.8031 8.78865 17.5781L17.3282 12.3495C18.1458 11.8507 18.6351 10.9812 18.637 10.0233C18.639 9.06561 18.1532 8.19405 17.338 7.69217Z" fill="white"/>
</g>
<defs>
<clipPath id="clip0_1_21124">
<rect width="20" height="20" fill="white"/>
</clipPath>
</defs>
</svg>
