<svg width="19" height="19" viewBox="0 0 19 19" fill="none" xmlns="http://www.w3.org/2000/svg">
<g clip-path="url(#clip0_1_15470)">
<path d="M17.8565 7.50384L16.4585 7.19994C16.3369 6.82776 16.1864 6.46474 16.0086 6.11504L16.7825 4.91122C16.9207 4.69613 16.8904 4.41374 16.7097 4.23306L14.5318 2.05522C14.3512 1.87454 14.0688 1.84415 13.8537 1.98237L12.6499 2.75628C12.3002 2.57852 11.9371 2.42795 11.565 2.30639L11.2611 0.908432C11.2068 0.658648 10.9856 0.480469 10.73 0.480469H7.65015C7.39454 0.480469 7.17334 0.658648 7.11908 0.908432L6.81518 2.30639C6.443 2.42795 6.07998 2.57852 5.73028 2.75628L4.52646 1.98237C4.31137 1.84415 4.02897 1.87454 3.84829 2.05522L1.67045 4.23306C1.48978 4.41374 1.45939 4.69613 1.5976 4.91122L2.37151 6.11504C2.19375 6.46474 2.04319 6.82776 1.92163 7.19994L0.523667 7.50384C0.273883 7.55824 0.0957031 7.7793 0.0957031 8.03491V11.1148C0.0957031 11.3704 0.273883 11.5914 0.523667 11.6458L1.92163 11.9497C2.04319 12.3219 2.19375 12.6849 2.37151 13.0346L1.5976 14.2384C1.45939 14.4535 1.48978 14.7359 1.67045 14.9166L3.84829 17.0944C4.02897 17.2751 4.31137 17.3055 4.52646 17.1673L5.73028 16.3934C6.07998 16.5711 6.443 16.7217 6.81518 16.8433L7.11908 18.2412C7.17334 18.491 7.39454 18.6692 7.65015 18.6692H10.73C10.9856 18.6692 11.2068 18.491 11.2611 18.2412L11.565 16.8433C11.9371 16.7217 12.3002 16.5711 12.6499 16.3934L13.8537 17.1673C14.0688 17.3055 14.3512 17.2753 14.5318 17.0944L16.7097 14.9166C16.8904 14.7359 16.9207 14.4535 16.7825 14.2384L16.0086 13.0346C16.1864 12.6849 16.3369 12.3219 16.4585 11.9497L17.8565 11.6458C18.1063 11.5914 18.2844 11.3704 18.2844 11.1148V8.03491C18.2844 7.7793 18.1063 7.55824 17.8565 7.50384ZM12.451 9.57483C12.451 11.3729 10.9881 12.8358 9.19007 12.8358C7.39204 12.8358 5.92913 11.3729 5.92913 9.57483C5.92913 7.7768 7.39204 6.3139 9.19007 6.3139C10.9881 6.3139 12.451 7.7768 12.451 9.57483Z" fill="white"/>
</g>
<defs>
<clipPath id="clip0_1_15470">
<rect width="18.1887" height="18.1887" fill="white" transform="translate(0.0957031 0.480469)"/>
</clipPath>
</defs>
</svg>
