<svg width="170" height="27" viewBox="0 0 170 27" fill="none" xmlns="http://www.w3.org/2000/svg">
<circle cx="156.136" cy="13.3375" r="12.6363" fill="#1E2538" stroke="#2B354E"/>
<circle cx="121.136" cy="13.3375" r="12.6363" fill="#1E2538" stroke="#2B354E"/>
<circle cx="86.1363" cy="13.3375" r="12.6363" fill="#1E2538" stroke="#2B354E"/>
<circle cx="49.6856" cy="13.3375" r="12.6363" fill="#1E2538" stroke="#2B354E"/>
<circle cx="13.2974" cy="13.3375" r="12.6363" fill="#1E2538" stroke="#2B354E"/>
<path d="M18.9976 10.5293C18.9507 10.7637 18.7632 11.1465 18.4351 11.6777C18.1226 12.209 17.8335 12.6777 17.5679 13.084C17.3022 13.4746 17.1616 13.6777 17.146 13.6934C17.0522 13.834 17.0054 13.9355 17.0054 13.998C17.0054 14.0605 17.0522 14.1699 17.146 14.3262C17.146 14.3262 17.1929 14.3809 17.2866 14.4902C17.396 14.5996 17.521 14.7246 17.6616 14.8652C17.8022 15.0059 17.9585 15.1699 18.1304 15.3574C18.3022 15.5449 18.4585 15.7324 18.5991 15.9199C18.7554 16.0918 18.8882 16.2715 18.9976 16.459C19.1226 16.6465 19.2085 16.8027 19.2554 16.9277C19.3647 17.3184 19.2085 17.5137 18.7866 17.5137H17.4038C17.2944 17.5137 17.2007 17.498 17.1226 17.4668C17.0444 17.4355 16.9585 17.3809 16.8647 17.3027C16.771 17.2246 16.6851 17.1387 16.6069 17.0449C16.5288 16.9512 16.4116 16.8184 16.2554 16.6465C16.0991 16.4746 15.9429 16.3105 15.7866 16.1543C15.1616 15.5605 14.7007 15.2637 14.4038 15.2637C14.2163 15.2637 14.1069 15.3184 14.0757 15.4277C14.0444 15.5371 14.0288 15.8496 14.0288 16.3652C14.0444 16.6152 14.0522 16.8184 14.0522 16.9746C14.0522 17.1621 13.9897 17.3027 13.8647 17.3965C13.7397 17.4746 13.4663 17.5137 13.0444 17.5137C12.3101 17.5137 11.5679 17.2949 10.8179 16.8574C10.0679 16.4199 9.41162 15.7949 8.84912 14.9824C8.31787 14.2637 7.87256 13.5527 7.51318 12.8496C7.16943 12.1309 6.94287 11.584 6.8335 11.209C6.72412 10.834 6.66943 10.5684 6.66943 10.4121C6.66943 10.1465 6.82568 10.0137 7.13818 10.0137H8.521C8.69287 10.0137 8.81787 10.0527 8.896 10.1309C8.98975 10.209 9.06787 10.3496 9.13037 10.5527C9.4585 11.5059 9.85693 12.3574 10.3257 13.1074C10.8101 13.8574 11.1772 14.2324 11.4272 14.2324C11.521 14.2324 11.5835 14.2012 11.6147 14.1387C11.6616 14.0605 11.6851 13.9199 11.6851 13.7168V11.6777C11.6694 11.459 11.6304 11.2715 11.5679 11.1152C11.5054 10.959 11.4429 10.8496 11.3804 10.7871C11.3179 10.709 11.2554 10.6309 11.1929 10.5527C11.146 10.4746 11.1226 10.4043 11.1226 10.3418C11.1226 10.2793 11.1382 10.2246 11.1694 10.1777C11.2007 10.1309 11.2397 10.0918 11.2866 10.0605C11.3491 10.0293 11.4116 10.0137 11.4741 10.0137H13.6538C13.9038 10.0137 14.0288 10.1855 14.0288 10.5293V13.248C14.0288 13.5137 14.0991 13.6465 14.2397 13.6465C14.396 13.6465 14.6147 13.5059 14.896 13.2246C15.1929 12.8965 15.4819 12.498 15.7632 12.0293C16.0444 11.5605 16.2554 11.1699 16.396 10.8574L16.6069 10.4121C16.7163 10.1465 16.9116 10.0137 17.1929 10.0137H18.5757C18.9507 10.0137 19.0913 10.1855 18.9976 10.5293ZM56.6147 10.6699C56.6616 10.8574 56.7007 11.0918 56.7319 11.373C56.7788 11.6543 56.8101 11.9355 56.8257 12.2168C56.8413 12.4824 56.8491 12.7324 56.8491 12.9668C56.8647 13.2012 56.8726 13.3965 56.8726 13.5527V13.7637C56.8726 15.1699 56.7866 16.209 56.6147 16.8809C56.5366 17.1465 56.396 17.3809 56.1929 17.584C55.9897 17.7871 55.7476 17.9277 55.4663 18.0059C55.1694 18.084 54.6069 18.1465 53.7788 18.1934C52.9507 18.2246 52.1929 18.248 51.5054 18.2637H50.4741C47.8022 18.2637 46.1382 18.1777 45.4819 18.0059C44.8726 17.834 44.4897 17.459 44.3335 16.8809C44.2554 16.584 44.1929 16.1777 44.146 15.6621C44.1147 15.1309 44.0913 14.6855 44.0757 14.3262V13.7637C44.0757 12.373 44.1616 11.3418 44.3335 10.6699C44.4116 10.3887 44.5522 10.1465 44.7554 9.94336C44.9585 9.74023 45.2007 9.59961 45.4819 9.52148C45.7788 9.44336 46.3413 9.38867 47.1694 9.35742C47.9976 9.31055 48.7554 9.2793 49.4429 9.26367H50.4741C53.146 9.26367 54.8101 9.34961 55.4663 9.52148C55.7476 9.59961 55.9897 9.74023 56.1929 9.94336C56.396 10.1465 56.5366 10.3887 56.6147 10.6699ZM49.1616 15.6855L52.5132 13.7637L49.1616 11.8652V15.6855ZM84.5757 11.8652C85.1069 11.334 85.7476 11.0684 86.4976 11.0684C87.2476 11.0684 87.8804 11.334 88.396 11.8652C88.9272 12.3809 89.1929 13.0137 89.1929 13.7637C89.1929 14.5137 88.9272 15.1543 88.396 15.6855C87.8804 16.2012 87.2476 16.459 86.4976 16.459C85.7476 16.459 85.1069 16.2012 84.5757 15.6855C84.0601 15.1543 83.8022 14.5137 83.8022 13.7637C83.8022 13.0137 84.0601 12.3809 84.5757 11.8652ZM85.2554 15.0059C85.5991 15.3496 86.0132 15.5215 86.4976 15.5215C86.9819 15.5215 87.396 15.3496 87.7397 15.0059C88.0835 14.6621 88.2554 14.248 88.2554 13.7637C88.2554 13.2793 88.0835 12.8652 87.7397 12.5215C87.396 12.1777 86.9819 12.0059 86.4976 12.0059C86.0132 12.0059 85.5991 12.1777 85.2554 12.5215C84.9116 12.8652 84.7397 13.2793 84.7397 13.7637C84.7397 14.248 84.9116 14.6621 85.2554 15.0059ZM89.7319 10.5293C89.8569 10.6387 89.9194 10.7793 89.9194 10.9512C89.9194 11.123 89.8569 11.2715 89.7319 11.3965C89.6226 11.5215 89.4819 11.584 89.3101 11.584C89.1382 11.584 88.9897 11.5215 88.8647 11.3965C88.7397 11.2715 88.6772 11.123 88.6772 10.9512C88.6772 10.7793 88.7397 10.6387 88.8647 10.5293C88.9897 10.4043 89.1382 10.3418 89.3101 10.3418C89.4819 10.3418 89.6226 10.4043 89.7319 10.5293ZM91.7241 11.6074C91.7397 12.0293 91.7476 12.748 91.7476 13.7637C91.7476 14.7793 91.7397 15.498 91.7241 15.9199C91.6772 16.873 91.3882 17.6152 90.8569 18.1465C90.3413 18.6621 89.6069 18.9355 88.6538 18.9668C88.2319 18.998 87.5132 19.0137 86.4976 19.0137C85.4819 19.0137 84.7632 18.998 84.3413 18.9668C83.3882 18.9199 82.6538 18.6387 82.1382 18.123C81.9351 17.9355 81.771 17.7168 81.646 17.4668C81.521 17.2168 81.4272 16.9746 81.3647 16.7402C81.3179 16.5059 81.2944 16.2324 81.2944 15.9199C81.2632 15.498 81.2476 14.7793 81.2476 13.7637C81.2476 12.748 81.2632 12.0215 81.2944 11.584C81.3413 10.6465 81.6226 9.91992 82.1382 9.4043C82.6538 8.87305 83.3882 8.58398 84.3413 8.53711C84.7632 8.52148 85.4819 8.51367 86.4976 8.51367C87.5132 8.51367 88.2319 8.52148 88.6538 8.53711C89.6069 8.58398 90.3413 8.87305 90.8569 9.4043C91.3882 9.91992 91.6772 10.6543 91.7241 11.6074ZM90.5991 16.8574C90.646 16.7324 90.6851 16.5762 90.7163 16.3887C90.7476 16.1855 90.771 15.9512 90.7866 15.6855C90.8022 15.4043 90.8101 15.1777 90.8101 15.0059C90.8101 14.834 90.8101 14.5918 90.8101 14.2793C90.8101 13.9668 90.8101 13.7949 90.8101 13.7637C90.8101 13.7168 90.8101 13.5449 90.8101 13.248C90.8101 12.9355 90.8101 12.6934 90.8101 12.5215C90.8101 12.3496 90.8022 12.1309 90.7866 11.8652C90.771 11.584 90.7476 11.3496 90.7163 11.1621C90.6851 10.959 90.646 10.7949 90.5991 10.6699C90.4116 10.1855 90.0757 9.84961 89.5913 9.66211C89.4663 9.61523 89.3022 9.57617 89.0991 9.54492C88.9116 9.51367 88.6772 9.49023 88.396 9.47461C88.1304 9.45898 87.9116 9.45117 87.7397 9.45117C87.5835 9.45117 87.3413 9.45117 87.0132 9.45117C86.7007 9.45117 86.5288 9.45117 86.4976 9.45117C86.4663 9.45117 86.2944 9.45117 85.9819 9.45117C85.6694 9.45117 85.4272 9.45117 85.2554 9.45117C85.0835 9.45117 84.8569 9.45898 84.5757 9.47461C84.3101 9.49023 84.0757 9.51367 83.8726 9.54492C83.6851 9.57617 83.5288 9.61523 83.4038 9.66211C82.9194 9.84961 82.5835 10.1855 82.396 10.6699C82.3491 10.7949 82.3101 10.959 82.2788 11.1621C82.2476 11.3496 82.2241 11.584 82.2085 11.8652C82.1929 12.1309 82.1851 12.3496 82.1851 12.5215C82.1851 12.6777 82.1851 12.9199 82.1851 13.248C82.1851 13.5605 82.1851 13.7324 82.1851 13.7637C82.1851 13.8262 82.1851 13.9746 82.1851 14.209C82.1851 14.4277 82.1851 14.6152 82.1851 14.7715C82.1851 14.9121 82.1851 15.0996 82.1851 15.334C82.2007 15.5684 82.2163 15.7715 82.2319 15.9434C82.2476 16.0996 82.271 16.2637 82.3022 16.4355C82.3335 16.6074 82.3647 16.748 82.396 16.8574C82.5991 17.3418 82.9351 17.6777 83.4038 17.8652C83.5288 17.9121 83.6851 17.9512 83.8726 17.9824C84.0757 18.0137 84.3101 18.0371 84.5757 18.0527C84.8569 18.0684 85.0757 18.0762 85.2319 18.0762C85.4038 18.0762 85.646 18.0762 85.9585 18.0762C86.2866 18.0762 86.4663 18.0762 86.4976 18.0762C86.5444 18.0762 86.7163 18.0762 87.0132 18.0762C87.3257 18.0762 87.5679 18.0762 87.7397 18.0762C87.9116 18.0762 88.1304 18.0684 88.396 18.0527C88.6772 18.0371 88.9116 18.0137 89.0991 17.9824C89.3022 17.9512 89.4663 17.9121 89.5913 17.8652C90.0757 17.6621 90.4116 17.3262 90.5991 16.8574ZM126.482 11.3262C126.498 11.3887 126.505 11.4902 126.505 11.6309C126.505 12.459 126.349 13.2871 126.037 14.1152C125.724 14.9277 125.279 15.6777 124.701 16.3652C124.138 17.0371 123.404 17.584 122.498 18.0059C121.591 18.4277 120.591 18.6387 119.498 18.6387C118.123 18.6387 116.865 18.2715 115.724 17.5371C115.896 17.5527 116.091 17.5605 116.31 17.5605C117.451 17.5605 118.474 17.209 119.38 16.5059C118.833 16.5059 118.349 16.3496 117.927 16.0371C117.521 15.709 117.24 15.3027 117.083 14.8184C117.24 14.834 117.388 14.8418 117.529 14.8418C117.748 14.8418 117.966 14.8184 118.185 14.7715C117.81 14.6934 117.474 14.5371 117.177 14.3027C116.88 14.0684 116.646 13.7871 116.474 13.459C116.302 13.1152 116.216 12.748 116.216 12.3574V12.3105C116.56 12.5137 116.927 12.623 117.318 12.6387C116.583 12.1387 116.216 11.4512 116.216 10.5762C116.216 10.1387 116.333 9.72461 116.568 9.33398C117.177 10.0996 117.919 10.709 118.794 11.1621C119.685 11.6152 120.63 11.8652 121.63 11.9121C121.599 11.7246 121.583 11.5371 121.583 11.3496C121.583 10.6777 121.818 10.0996 122.287 9.61523C122.771 9.13086 123.349 8.88867 124.021 8.88867C124.74 8.88867 125.341 9.14648 125.826 9.66211C126.388 9.55273 126.912 9.35742 127.396 9.07617C127.208 9.6543 126.849 10.1074 126.318 10.4355C126.787 10.373 127.255 10.2402 127.724 10.0371C127.38 10.5371 126.966 10.9668 126.482 11.3262ZM158.263 14.5137H156.505V19.7637H154.162V14.5137H152.263V12.334H154.162V10.6934C154.162 10.0684 154.279 9.53711 154.513 9.09961C154.748 8.66211 155.076 8.33398 155.498 8.11523C155.935 7.88086 156.435 7.76367 156.998 7.76367C157.248 7.76367 157.513 7.7793 157.794 7.81055C158.076 7.82617 158.294 7.84961 158.451 7.88086L158.685 7.9043V9.75586H157.748C157.31 9.75586 156.99 9.87305 156.787 10.1074C156.599 10.3262 156.505 10.5996 156.505 10.9277V12.334H158.591L158.263 14.5137Z" fill="white" fill-opacity="0.5"/>
</svg>
