<svg width="128" height="34" viewBox="0 0 128 34" fill="none" xmlns="http://www.w3.org/2000/svg">
<path d="M25.623 0H10.9479C4.89883 0 0 4.9771 0 11.1228V26.0324C0 27.0062 0.127796 28.1098 0.362087 28.997C1.17146 32.1131 3.85516 33.8443 6.58147 33.8443C7.66773 33.8443 8.754 33.563 9.71246 33.0004C9.81894 32.9354 9.92543 32.8705 10.0319 32.8056C10.1171 32.7623 10.1811 32.6974 10.2662 32.6541C10.3301 32.6108 10.394 32.5675 10.4366 32.5243C10.4793 32.4809 10.5218 32.4594 10.5644 32.416C10.6497 32.3511 10.7136 32.2862 10.7987 32.2213C10.9052 32.1348 10.9904 32.0482 11.0756 31.94C11.1183 31.8967 11.1608 31.8534 11.2247 31.7885C11.3099 31.6803 11.3951 31.5938 11.4803 31.4856C11.5655 31.3773 11.6507 31.2692 11.7359 31.161L17.4228 23.0678C17.444 23.0244 17.4867 23.0029 17.508 22.9595C17.8914 22.5268 18.573 22.5268 18.9563 22.9595C18.9777 22.9812 19.0202 23.0244 19.0416 23.0678L24.8349 31.1826C24.9201 31.2908 24.984 31.399 25.0692 31.5072C25.2609 31.7236 25.4526 31.94 25.6443 32.1348C25.6869 32.178 25.7295 32.2213 25.7721 32.2429C25.8147 32.2862 25.8573 32.3295 25.9212 32.3728C25.9638 32.416 26.0277 32.4594 26.0703 32.5026C26.1129 32.5458 26.1767 32.5892 26.2194 32.6324C26.262 32.6757 26.3259 32.6974 26.3685 32.7407C26.411 32.7839 26.4749 32.8056 26.5176 32.8489C26.5814 32.8921 26.6241 32.9138 26.688 32.957C26.7306 32.9787 26.7945 33.0219 26.8371 33.0436C27.0074 33.1302 27.1778 33.2167 27.3482 33.3033C27.4121 33.3249 27.4547 33.3465 27.5186 33.3899C27.5825 33.4114 27.6251 33.4331 27.689 33.4548C27.7955 33.498 27.9233 33.5413 28.0298 33.5846C28.1363 33.6279 28.2429 33.6495 28.3706 33.6928C28.6049 33.7577 28.8179 33.801 29.0521 33.8443C29.116 33.8443 29.1587 33.8659 29.2225 33.8659C29.2652 33.8659 29.3291 33.8875 29.3717 33.8875C29.4143 33.8875 29.4356 33.8875 29.4782 33.8875C29.5421 33.8875 29.5846 33.8875 29.6486 33.9092C29.6911 33.9092 29.7125 33.9092 29.755 33.9092C29.8403 33.9092 29.9468 33.9092 30.0319 33.9092H30.0532C30.1385 33.9092 30.2236 33.9092 30.3089 33.9092C32.8222 33.801 35.2503 32.2213 36.1023 29.4298C36.4217 28.3695 36.5921 27.2659 36.5921 26.0973V11.1228C36.5709 4.9771 31.672 0 25.623 0ZM29.4568 17.0519C29.3717 17.1602 29.2864 17.2684 29.2013 17.3765C28.754 17.896 28.1363 18.2421 27.4974 18.5451C26.3685 19.1077 25.1544 19.4106 23.9403 19.6487C21.278 20.1681 18.5942 20.2762 15.8893 20.0815C14.0575 19.9733 12.2471 19.692 10.4793 19.1294C9.73379 18.8913 9.00958 18.6101 8.34931 18.1989C8.26411 18.134 8.15762 18.0907 8.07241 18.0258C7.98722 17.9609 7.90202 17.896 7.81683 17.831C7.77423 17.7877 7.73163 17.7661 7.66773 17.7228C7.64643 17.7011 7.60383 17.6795 7.58254 17.6579C7.53994 17.6146 7.49733 17.5713 7.43344 17.528C7.30565 17.3982 7.17785 17.2467 7.07136 17.0953C6.92225 16.8789 6.81576 16.6624 6.75186 16.4028C6.73057 16.2946 6.70927 16.1648 6.70927 16.0566C6.68796 15.8834 6.70927 15.7103 6.75186 15.5588C6.77316 15.4939 6.77316 15.429 6.79446 15.3857C6.81576 15.3208 6.83706 15.2559 6.85836 15.2126C6.96486 14.9746 7.11395 14.7581 7.28434 14.5634C7.32694 14.5201 7.36954 14.4769 7.39084 14.4552C7.96592 13.871 8.64749 13.4815 9.39301 13.1785C9.66989 13.0703 9.94676 12.9621 10.245 12.8755C10.394 12.8323 10.5218 12.789 10.6709 12.724C10.82 12.6591 10.9478 12.6375 11.0969 12.5942C11.1608 12.5726 11.2034 12.551 11.246 12.5077C11.2673 12.486 11.2886 12.4644 11.2886 12.4428C11.3099 12.4211 11.3099 12.3994 11.3312 12.3562C11.672 11.4474 12.1406 10.6683 12.6943 9.99749C12.8008 9.86766 12.9073 9.7594 13.0139 9.65124C14.0362 8.5909 15.3568 7.8768 16.9968 7.57385C19.361 7.11941 21.7891 7.98499 23.4505 9.67291C24.1534 10.4087 24.7285 11.2742 25.0905 12.2696C25.1332 12.3779 25.1757 12.4428 25.2396 12.5077C25.3035 12.5726 25.3674 12.6159 25.4739 12.6375C26.411 12.8972 27.3269 13.2218 28.1576 13.7411C28.5836 14.0008 28.9883 14.3037 29.2864 14.6717C29.4568 14.888 29.5846 15.1044 29.6911 15.3857C29.7338 15.4939 29.755 15.6021 29.7976 15.7103V16.3163C29.7338 16.5543 29.6486 16.749 29.5421 16.9438C29.5207 16.9438 29.4995 17.0087 29.4568 17.0519Z" fill="white"/>
<path d="M47.9041 10.3106L50.8841 20.5331H50.9778L53.512 10.3106H57.4305L59.9412 20.5331H60.0351L63.1089 10.3106H66.7458L62.0295 23.5186H57.5479L55.4126 14.2753L53.1835 23.5186H48.7722L44.2436 10.3106H47.9041ZM80.6743 10.3106V13.4871H72.1802V15.2308H79.8061V18.4073H72.1802V20.2703H80.9793V23.5186H68.7309V10.3106H80.6743ZM90.9598 10.3106C91.7421 10.3106 92.4616 10.4379 93.1182 10.6927C93.7913 10.9474 94.3623 11.3057 94.8313 11.7674C95.3168 12.2292 95.692 12.7865 95.9577 13.4394C96.2391 14.0763 96.3798 14.7849 96.3798 15.5651C96.3798 16.3453 96.2391 17.0539 95.9577 17.6908C95.692 18.3278 95.3168 18.8691 94.8313 19.315C94.3623 19.7608 93.7913 20.1031 93.1182 20.342C92.4616 20.5808 91.7421 20.7003 90.9598 20.7003H86.7363V23.5186H83.287V10.3106H90.9598ZM86.7363 17.4998H90.819C91.4292 17.4998 91.9298 17.3405 92.3209 17.022C92.7117 16.7036 92.9076 16.218 92.9076 15.5651C92.9076 14.9282 92.7117 14.4266 92.3209 14.0604C91.9298 13.6941 91.4292 13.5111 90.819 13.5111H86.7363V17.4998ZM106.089 10.3106C106.871 10.3106 107.591 10.4379 108.247 10.6927C108.92 10.9474 109.491 11.3057 109.96 11.7674C110.445 12.2292 110.821 12.7865 111.087 13.4394C111.368 14.0763 111.509 14.7849 111.509 15.5651C111.509 16.5524 111.297 17.4122 110.875 18.1447C110.469 18.8771 109.898 19.4663 109.162 19.9121L111.134 23.5186H107.379L105.901 20.7003H101.865V23.5186H98.4156V10.3106H106.089ZM101.865 17.4998H105.948C106.558 17.4998 107.058 17.3405 107.45 17.022C107.841 16.7036 108.036 16.218 108.036 15.5651C108.036 14.9282 107.841 14.4266 107.45 14.0604C107.058 13.6941 106.558 13.5111 105.948 13.5111H101.865V17.4998ZM116.854 16.9266C116.854 17.5317 116.948 18.081 117.136 18.5745C117.34 19.0522 117.613 19.4663 117.958 19.8166C118.317 20.151 118.724 20.4136 119.177 20.6047C119.647 20.7799 120.155 20.8675 120.703 20.8675C121.235 20.8675 121.735 20.7799 122.204 20.6047C122.674 20.4136 123.08 20.151 123.424 19.8166C123.769 19.4663 124.035 19.0522 124.223 18.5745C124.426 18.081 124.527 17.5317 124.527 16.9266C124.527 16.3215 124.426 15.7801 124.223 15.3024C124.035 14.8088 123.769 14.3948 123.424 14.0604C123.08 13.7101 122.674 13.4474 122.204 13.2722C121.735 13.0811 121.235 12.9856 120.703 12.9856C120.155 12.9856 119.647 13.0811 119.177 13.2722C118.724 13.4474 118.317 13.7101 117.958 14.0604C117.613 14.3948 117.34 14.8088 117.136 15.3024C116.948 15.7801 116.854 16.3215 116.854 16.9266ZM128 16.9266C128 17.9615 127.797 18.9089 127.39 19.7687C126.999 20.6127 126.467 21.3372 125.795 21.9423C125.137 22.5473 124.363 23.017 123.471 23.3514C122.596 23.6858 121.673 23.853 120.703 23.853C119.733 23.853 118.802 23.6858 117.911 23.3514C117.034 23.017 116.26 22.5473 115.587 21.9423C114.931 21.3372 114.398 20.6127 113.992 19.7687C113.601 18.9089 113.405 17.9615 113.405 16.9266C113.405 15.8915 113.601 14.9521 113.992 14.1082C114.398 13.2483 114.931 12.5159 115.587 11.9108C116.26 11.3057 117.034 10.836 117.911 10.5016C118.802 10.1672 119.733 10 120.703 10C121.673 10 122.596 10.1672 123.471 10.5016C124.363 10.836 125.137 11.3057 125.795 11.9108C126.467 12.5159 126.999 13.2483 127.39 14.1082C127.797 14.9521 128 15.8915 128 16.9266Z" fill="white"/>
</svg>
